TITLE ""
FILE "Disc3Track44.mp3" MP3
  TRACK 01 AUDIO
    TITLE "Disc3Track44_01"
    INDEX 01 00:00:00
  TRACK 02 AUDIO
    TITLE "Disc3Track44_02"
    INDEX 01 00:01:10
  TRACK 03 AUDIO
    TITLE "Disc3Track44_03"
    INDEX 01 00:02:17
  TRACK 04 AUDIO
    TITLE "Disc3Track44_04"
    INDEX 01 00:03:34
  TRACK 05 AUDIO
    TITLE "Disc3Track44_05"
    INDEX 01 00:03:67
  TRACK 06 AUDIO
    TITLE "Disc3Track44_06"
    INDEX 01 00:05:10
  TRACK 07 AUDIO
    TITLE "Disc3Track44_07"
    INDEX 01 00:07:51
  TRACK 08 AUDIO
    TITLE "Disc3Track44_08"
    INDEX 01 00:08:69
  TRACK 09 AUDIO
    TITLE "Disc3Track44_09"
    INDEX 01 00:15:31
  TRACK 10 AUDIO
    TITLE "Disc3Track44_10"
    INDEX 01 00:15:65
  TRACK 11 AUDIO
    TITLE "Disc3Track44_11"
    INDEX 01 00:17:17
  TRACK 12 AUDIO
    TITLE "Disc3Track44_12"
    INDEX 01 00:18:12
  TRACK 13 AUDIO
    TITLE "Disc3Track44_13"
    INDEX 01 00:19:39
  TRACK 14 AUDIO
    TITLE "Disc3Track44_14"
    INDEX 01 00:20:07
  TRACK 15 AUDIO
    TITLE "Disc3Track44_15"
    INDEX 01 00:21:38
  TRACK 16 AUDIO
    TITLE "Disc3Track44_16"
    INDEX 01 00:24:19
  TRACK 17 AUDIO
    TITLE "Disc3Track44_17"
    INDEX 01 00:25:47
  TRACK 18 AUDIO
    TITLE "Disc3Track44_18"
    INDEX 01 00:27:72
  TRACK 19 AUDIO
    TITLE "Disc3Track44_19"
    INDEX 01 00:28:26
  TRACK 20 AUDIO
    TITLE "Disc3Track44_20"
    INDEX 01 00:29:49
  TRACK 21 AUDIO
    TITLE "Disc3Track44_21"
    INDEX 01 00:30:70
  TRACK 22 AUDIO
    TITLE "Disc3Track44_22"
    INDEX 01 00:32:16
  TRACK 23 AUDIO
    TITLE "Disc3Track44_23"
    INDEX 01 00:37:04
  TRACK 24 AUDIO
    TITLE "Disc3Track44_24"
    INDEX 01 00:37:37
  TRACK 25 AUDIO
    TITLE "Disc3Track44_25"
    INDEX 01 00:38:70
  TRACK 26 AUDIO
    TITLE "Disc3Track44_26"
    INDEX 01 00:39:73
  TRACK 27 AUDIO
    TITLE "Disc3Track44_27"
    INDEX 01 00:41:31
  TRACK 28 AUDIO
    TITLE "Disc3Track44_28"
    INDEX 01 00:41:74
  TRACK 29 AUDIO
    TITLE "Disc3Track44_29"
    INDEX 01 00:43:26
  TRACK 30 AUDIO
    TITLE "Disc3Track44_30"
    INDEX 01 00:44:35
  TRACK 31 AUDIO
    TITLE "Disc3Track44_31"
    INDEX 01 00:45:62
  TRACK 32 AUDIO
    TITLE "Disc3Track44_32"
    INDEX 01 00:50:61
  TRACK 33 AUDIO
    TITLE "Disc3Track44_33"
    INDEX 01 00:51:17
  TRACK 34 AUDIO
    TITLE "Disc3Track44_34"
    INDEX 01 00:52:36
  TRACK 35 AUDIO
    TITLE "Disc3Track44_35"
    INDEX 01 00:53:50
  TRACK 36 AUDIO
    TITLE "Disc3Track44_36"
    INDEX 01 00:54:69
  TRACK 37 AUDIO
    TITLE "Disc3Track44_37"
    INDEX 01 00:55:37
  TRACK 38 AUDIO
    TITLE "Disc3Track44_38"
    INDEX 01 00:56:58
  TRACK 39 AUDIO
    TITLE "Disc3Track44_39"
    INDEX 01 00:58:53
  TRACK 40 AUDIO
    TITLE "Disc3Track44_40"
    INDEX 01 00:59:74
  TRACK 41 AUDIO
    TITLE "Disc3Track44_41"
    INDEX 01 01:00:42
  TRACK 42 AUDIO
    TITLE "Disc3Track44_42"
    INDEX 01 01:01:67
  TRACK 43 AUDIO
    TITLE "Disc3Track44_43"
    INDEX 01 01:03:44
  TRACK 44 AUDIO
    TITLE "Disc3Track44_44"
    INDEX 01 01:04:69
  TRACK 45 AUDIO
    TITLE "Disc3Track44_45"
    INDEX 01 01:09:21
  TRACK 46 AUDIO
    TITLE "Disc3Track44_46"
    INDEX 01 01:09:53
  TRACK 47 AUDIO
    TITLE "Disc3Track44_47"
    INDEX 01 01:11:10
  TRACK 48 AUDIO
    TITLE "Disc3Track44_48"
    INDEX 01 01:13:19
  TRACK 49 AUDIO
    TITLE "Disc3Track44_49"
    INDEX 01 01:14:52
  TRACK 50 AUDIO
    TITLE "Disc3Track44_50"
    INDEX 01 01:15:16
  TRACK 51 AUDIO
    TITLE "Disc3Track44_51"
    INDEX 01 01:16:27
  TRACK 52 AUDIO
    TITLE "Disc3Track44_52"
    INDEX 01 01:18:20
  TRACK 53 AUDIO
    TITLE "Disc3Track44_53"
    INDEX 01 01:19:29
  TRACK 54 AUDIO
    TITLE "Disc3Track44_54"
    INDEX 01 01:23:49
  TRACK 55 AUDIO
    TITLE "Disc3Track44_55"
    INDEX 01 01:24:05
  TRACK 56 AUDIO
    TITLE "Disc3Track44_56"
    INDEX 01 01:25:26
  TRACK 57 AUDIO
    TITLE "Disc3Track44_57"
    INDEX 01 01:26:63
  TRACK 58 AUDIO
    TITLE "Disc3Track44_58"
    INDEX 01 01:28:09
  TRACK 59 AUDIO
    TITLE "Disc3Track44_59"
    INDEX 01 01:32:46
